<?xml version="1.0" standalone="no"?>
<!DOCTYPE svg PUBLIC "-//W3C//DTD SVG 20010904//EN"
 "http://www.w3.org/TR/2001/REC-SVG-20010904/DTD/svg10.dtd">
<svg version="1.0" xmlns="http://www.w3.org/2000/svg"
 width="1024.000000pt" height="1024.000000pt" viewBox="0 0 1024.000000 1024.000000"
 preserveAspectRatio="xMidYMid meet">

<g transform="translate(0.000000,1024.000000) scale(0.100000,-0.100000)"
fill="#000000" stroke="none">
<path d="M8415 7923 c-33 -25 -59 -50 -57 -55 1 -5 -2 -7 -8 -3 -6 4 -63 -36
-128 -87 -118 -95 -327 -254 -476 -362 -392 -286 -658 -496 -654 -515 2 -7 10
-18 19 -24 13 -8 40 7 130 75 63 46 166 123 229 170 63 47 185 139 270 204 85
64 200 151 255 193 55 41 168 132 250 201 83 69 167 139 189 155 60 47 80 65
71 65 -5 0 -16 -7 -26 -16 -13 -11 -22 -13 -35 -6 -16 9 -16 10 3 16 12 4 24
13 27 21 7 20 10 21 -59 -32z"/>
<path d="M5087 7902 c-22 -25 -21 -54 2 -83 16 -20 23 -22 38 -13 27 17 39 58
25 89 -14 29 -42 33 -65 7z m33 -47 c0 -14 -4 -25 -10 -25 -11 0 -14 33 -3 43
11 11 13 8 13 -18z"/>
<path d="M8604 7775 c-38 -30 -119 -92 -181 -139 -61 -47 -142 -112 -180 -144
-61 -52 -179 -144 -488 -377 -501 -380 -535 -408 -535 -441 0 -58 54 -35 217
88 60 46 172 130 248 188 177 134 471 367 600 475 55 46 136 112 180 146 128
100 190 160 192 186 1 16 -4 23 -15 23 -13 1 -9 7 13 25 17 14 27 25 24 25 -4
0 -38 -25 -75 -55z"/>
<path d="M9010 7740 c0 -5 5 -10 11 -10 5 0 7 5 4 10 -3 6 -8 10 -11 10 -2 0
-4 -4 -4 -10z"/>
<path d="M8912 7664 c-46 -37 -79 -70 -75 -76 3 -6 1 -8 -5 -4 -9 5 -121 -78
-272 -203 -42 -34 -85 -68 -366 -286 -56 -44 -145 -113 -196 -152 -51 -40
-143 -110 -204 -155 -109 -82 -296 -227 -464 -360 -47 -38 -92 -68 -101 -68
-19 0 -26 24 -28 95 -3 132 -16 161 -149 327 -187 234 -389 390 -727 561 -170
86 -260 121 -454 177 -291 83 -490 107 -835 102 -104 -2 -129 -12 -32 -13 31
-1 56 -3 56 -4 0 -2 -7 -10 -15 -19 -17 -17 -11 -43 13 -49 13 -4 13 -5 -3 -6
-17 -1 -18 -3 -5 -12 11 -8 5 -9 -23 -4 -27 4 -37 3 -32 -4 4 -7 51 -11 123
-11 479 -1 984 -152 1377 -413 200 -133 347 -266 455 -408 58 -77 71 -111 50
-124 -6 -3 -7 1 -4 9 3 9 1 16 -5 16 -6 0 -11 -8 -11 -17 0 -10 -42 -58 -93
-108 -51 -49 -99 -105 -106 -122 -16 -39 -24 -41 -38 -10 -6 12 -46 67 -90
122 -123 155 -274 285 -450 386 -128 74 -131 82 -8 27 11 -5 30 -10 43 -11 12
0 22 -4 22 -8 0 -8 61 -31 67 -25 7 6 -138 92 -255 150 -294 147 -743 235
-1052 208 -426 -39 -776 -167 -1080 -395 -358 -270 -632 -668 -735 -1072 -64
-253 -75 -650 -21 -827 12 -40 13 -34 10 77 -4 138 6 136 31 -5 29 -168 67
-291 115 -377 17 -29 30 -58 30 -65 -1 -7 -19 -26 -41 -43 -22 -16 -46 -36
-54 -43 -30 -27 -16 12 19 52 34 40 37 64 11 96 -14 17 -85 191 -85 208 0 6
-4 13 -10 17 -15 9 18 -93 56 -174 l35 -75 -28 -37 c-15 -20 -49 -63 -76 -95
-26 -33 -52 -75 -57 -95 -6 -20 -17 -42 -26 -49 -8 -7 -12 -20 -9 -29 10 -30
-54 54 -84 109 -16 30 -52 116 -79 190 -150 403 -163 916 -36 1343 19 64 48
147 65 184 16 36 28 68 26 70 -2 2 -21 -36 -42 -84 -22 -49 -42 -92 -47 -97
-4 -6 -8 -19 -9 -30 0 -20 -1 -20 -9 2 -10 23 -25 29 -35 12 -9 -15 -25 -12
-25 6 0 8 4 13 9 10 9 -6 6 19 -6 54 -6 19 -65 -141 -86 -232 -8 -38 -11 -68
-6 -68 11 0 1 -56 -18 -98 -22 -50 -33 -138 -40 -327 -9 -265 27 -497 122
-782 51 -155 156 -366 196 -395 24 -18 33 -19 98 -9 79 12 121 7 121 -17 0
-18 -63 -103 -135 -183 -27 -30 -79 -93 -115 -139 -36 -45 -95 -108 -132 -138
-61 -49 -87 -75 -56 -56 8 5 9 -4 5 -32 -4 -21 -7 -47 -7 -57 0 -10 -4 -16 -8
-13 -5 3 -9 -1 -9 -9 0 -8 4 -15 7 -15 9 0 28 22 30 35 1 6 4 12 7 15 4 3 3
-1 -1 -7 -10 -17 9 -17 23 0 8 10 7 17 -2 27 -10 12 -9 12 6 1 15 -12 21 -11
40 6 12 11 34 28 50 38 l27 17 -13 -31 c-7 -17 -69 -93 -137 -169 -68 -75
-115 -130 -105 -121 31 25 53 33 25 9 -32 -27 -50 -44 -74 -70 -11 -11 -24
-20 -30 -20 -6 0 -3 5 7 11 9 5 17 15 17 21 0 6 -11 1 -25 -12 -14 -13 -23
-26 -20 -28 7 -7 -25 -42 -38 -42 -6 0 -2 10 9 22 10 12 0 7 -23 -12 -23 -18
-40 -37 -36 -43 3 -6 2 -7 -4 -4 -12 8 -56 -36 -46 -46 3 -4 2 -7 -4 -7 -6 0
-14 -7 -17 -15 -3 -9 27 12 66 46 39 34 96 77 127 96 31 19 67 43 81 52 14 9
52 28 85 41 33 13 73 38 89 55 29 30 188 268 306 457 35 56 96 148 135 203 39
55 83 122 98 149 15 27 50 81 78 120 53 76 107 158 198 301 32 50 65 102 75
117 l18 27 -28 -5 c-16 -3 -30 0 -35 7 -6 10 -11 10 -23 0 -9 -7 -23 -11 -31
-7 -9 3 -13 2 -10 -4 3 -6 0 -10 -8 -10 -14 0 -111 -114 -144 -170 -19 -33
-50 -53 -34 -21 6 10 7 21 4 25 -3 3 -1 6 6 6 8 0 11 6 7 16 -22 56 -24 200
-4 241 8 15 13 51 11 78 -4 81 45 352 77 430 8 19 21 53 25 65 1 3 7 18 13 33
7 15 15 39 18 53 4 14 13 28 21 31 8 3 12 11 10 17 -3 7 3 28 13 48 9 20 20
47 24 61 18 75 203 337 333 473 66 69 265 234 282 234 4 0 16 9 26 20 10 11
22 20 27 20 5 0 14 5 21 10 7 6 48 34 92 62 44 28 82 55 83 60 5 11 108 58
129 58 8 0 31 10 50 22 20 11 51 23 71 25 20 2 39 8 42 12 3 4 29 16 59 26 63
21 70 27 141 140 54 85 55 86 64 58 14 -43 103 -171 123 -176 21 -6 60 -4 268
12 162 12 257 8 369 -15 39 -8 80 -16 91 -18 18 -4 96 -32 195 -71 19 -8 45
-14 58 -15 12 0 22 -4 22 -8 0 -13 47 -32 78 -32 19 0 23 -3 14 -9 -10 -6 -6
-10 14 -15 16 -4 31 -11 34 -15 3 -4 23 -18 44 -31 52 -32 183 -161 235 -232
48 -66 71 -84 124 -93 21 -4 37 -11 35 -15 -9 -25 -323 -262 -463 -351 -110
-69 -193 -128 -212 -150 -7 -8 -11 -28 -9 -44 7 -64 62 -42 276 105 178 122
446 339 597 481 44 43 128 108 185 145 215 140 267 176 398 279 74 58 191 149
260 202 69 53 177 138 240 188 63 50 158 123 210 161 52 39 133 104 180 145
47 41 139 117 205 170 163 130 201 169 196 201 0 4 6 5 15 1 10 -3 30 11 59
43 24 26 43 49 41 51 -7 8 -57 -18 -62 -32 -4 -8 -13 -15 -22 -15 -10 0 3 18
33 45 28 25 48 45 45 45 -3 0 -42 -30 -88 -66z m50 -16 c-7 -7 -12 -8 -12 -2
0 14 12 26 19 19 2 -3 -1 -11 -7 -17z m-34 -34 c2 -1 -8 -1 -21 0 -15 0 -23 6
-20 14 4 10 9 10 22 0 9 -7 17 -13 19 -14z m-3775 -491 c-13 -2 -33 -2 -45 0
-13 2 -3 4 22 4 25 0 35 -2 23 -4z m-453 -53 c-19 -5 -55 -11 -80 -14 l-45 -5
50 14 c28 7 64 13 80 13 29 0 29 0 -5 -8z m984 -6 c33 -9 95 -27 136 -41 41
-14 85 -25 98 -24 13 0 22 -5 22 -14 0 -8 5 -15 12 -15 6 0 9 -3 6 -6 -3 -3
-48 11 -99 31 -52 20 -137 47 -189 60 -52 13 -84 24 -71 24 13 1 51 -6 85 -15z
m429 -134 c6 0 2 -6 -8 -14 -15 -10 -26 -11 -49 -3 l-31 11 25 7 c14 4 31 5
38 3 8 -2 19 -4 25 -4z m-1943 -61 c-8 -5 -28 -17 -45 -26 -29 -15 -29 -15
-15 2 14 17 45 33 65 34 6 0 3 -4 -5 -10z m-275 -193 c-22 -19 -42 -32 -45
-30 -6 6 62 64 75 64 6 0 -8 -16 -30 -34z m-75 -59 c0 -2 -12 -14 -27 -28
l-28 -24 24 28 c23 25 31 32 31 24z m-100 -102 c-45 -46 -50 -50 -50 -38 0 7
81 83 89 83 3 0 -15 -20 -39 -45z m-40 1 c0 -2 -8 -10 -17 -17 -16 -13 -17
-12 -4 4 13 16 21 21 21 13z m-167 -261 c-3 -9 -8 -14 -10 -11 -3 3 -2 9 2 15
9 16 15 13 8 -4z m-35 -60 c-6 -14 -15 -25 -19 -25 -5 0 -3 11 3 25 6 14 15
25 19 25 5 0 3 -11 -3 -25z m-55 -94 c-4 -3 -19 -30 -32 -58 -28 -60 -40 -66
-14 -7 9 21 17 41 18 44 7 25 19 39 27 34 6 -4 6 -9 1 -13z m-613 -208 c-10
-16 -11 -15 -6 7 3 14 6 34 7 45 1 13 3 11 6 -7 2 -15 -1 -35 -7 -45z m411
-378 c-6 -43 -9 -50 -10 -25 -1 41 12 122 16 100 2 -8 -1 -42 -6 -75z m-731
-2449 c0 -2 -8 -10 -17 -17 -16 -13 -17 -12 -4 4 13 16 21 21 21 13z"/>
<path d="M4933 7493 c9 -2 25 -2 35 0 9 3 1 5 -18 5 -19 0 -27 -2 -17 -5z"/>
<path d="M4858 7483 c6 -2 18 -2 25 0 6 3 1 5 -13 5 -14 0 -19 -2 -12 -5z"/>
<path d="M8799 7173 c-13 -16 -12 -17 4 -4 9 7 17 15 17 17 0 8 -8 3 -21 -13z"/>
<path d="M8442 6894 c-42 -32 -70 -60 -66 -66 4 -7 3 -8 -4 -4 -15 9 -64 -23
-55 -37 3 -6 1 -7 -5 -3 -13 8 -19 3 -278 -204 -93 -75 -195 -152 -227 -173
-64 -41 -432 -317 -542 -407 -38 -31 -84 -66 -102 -78 -18 -13 -74 -59 -125
-103 -51 -45 -133 -112 -183 -150 -205 -157 -441 -365 -485 -427 -22 -31 -22
-33 -5 -52 10 -11 26 -20 36 -20 10 0 58 33 106 73 48 40 123 97 166 127 43
29 127 95 185 145 59 50 141 115 182 145 72 52 212 162 485 386 156 127 348
282 589 475 388 311 458 371 483 409 16 25 16 25 -4 7 -11 -9 -31 -16 -44 -15
-23 2 -91 -40 -111 -67 -5 -6 -8 -5 -8 3 0 6 23 28 50 48 28 20 50 38 50 40 0
11 -22 -1 -88 -52z"/>
<path d="M8872 6791 c-13 -9 -20 -20 -17 -23 4 -4 16 3 27 14 25 25 19 32 -10
9z"/>
<path d="M6372 6779 c2 -6 14 -16 27 -20 27 -11 19 6 -11 22 -16 8 -19 8 -16
-2z"/>
<path d="M8704 6664 c-65 -53 -189 -147 -274 -210 -186 -137 -477 -361 -700
-539 -280 -224 -362 -287 -500 -391 -74 -55 -215 -161 -313 -235 -98 -74 -227
-169 -285 -212 -136 -99 -139 -102 -122 -121 27 -34 67 -19 213 79 233 157
457 320 531 386 28 25 112 90 186 144 131 96 273 208 550 436 74 61 167 135
205 165 39 30 108 86 155 125 47 39 137 112 200 163 128 104 285 249 257 240
-13 -5 -16 -2 -11 10 3 9 9 14 13 12 3 -2 11 7 18 20 6 13 8 24 4 24 -4 0 -61
-43 -127 -96z"/>
<path d="M3011 6427 c-13 -21 -12 -21 5 -5 10 10 16 20 13 22 -3 3 -11 -5 -18
-17z"/>
<path d="M3141 6414 c-12 -20 -20 -39 -17 -41 2 -3 14 13 26 36 25 51 20 54
-9 5z"/>
<path d="M7193 6138 c-59 -40 -144 -108 -188 -151 -81 -80 -83 -86 -8 -35 23
15 46 28 51 28 6 0 12 4 14 9 2 5 48 35 103 68 82 49 104 68 127 106 15 26 23
47 18 47 -5 0 -58 -33 -117 -72z"/>
<path d="M2846 6095 c-3 -9 -6 -22 -5 -28 0 -7 5 -1 10 12 5 13 8 26 5 28 -2
2 -6 -3 -10 -12z"/>
<path d="M5004 5833 c-114 -153 -118 -160 -357 -558 -52 -88 -148 -241 -212
-340 -149 -231 -247 -391 -280 -454 -14 -28 -78 -131 -143 -228 -65 -98 -129
-196 -142 -218 -47 -79 -184 -267 -204 -281 -72 -51 -95 -65 -131 -85 -22 -12
-78 -47 -123 -78 -46 -31 -123 -81 -170 -111 -48 -30 -88 -61 -90 -68 -3 -15
6 -15 65 0 44 11 75 29 158 89 66 49 3 -5 -91 -78 -56 -43 -164 -133 -240
-200 -76 -67 -166 -141 -199 -164 -33 -23 -87 -66 -120 -94 -33 -28 -101 -81
-152 -117 -118 -86 -343 -271 -295 -244 17 10 54 -3 46 -15 -3 -6 4 -5 16 3
14 9 20 20 17 35 -2 13 3 28 11 35 13 10 14 10 8 1 -4 -8 -1 -13 8 -13 25 0
19 -39 -6 -49 -13 -5 -33 -19 -46 -31 -12 -11 -27 -18 -33 -15 -6 4 -13 -2
-16 -14 -3 -11 -14 -23 -24 -26 -10 -4 -19 -13 -19 -21 0 -16 161 103 280 206
36 31 98 77 137 103 40 25 101 68 135 95 35 27 110 80 168 117 58 38 123 82
144 99 41 32 184 127 371 244 131 82 149 92 112 61 l-28 -24 43 1 c76 2 78 3
78 28 0 21 6 24 64 34 51 8 83 23 167 77 186 118 281 175 304 181 12 3 29 19
39 35 13 21 44 42 111 74 52 25 115 59 139 75 25 17 76 40 113 52 62 19 110
42 123 59 16 21 87 59 109 59 14 0 80 15 146 32 66 17 140 32 165 34 99 5 180
13 187 17 5 3 78 8 163 11 237 10 391 27 397 43 3 7 16 13 28 13 35 0 55 10
55 27 0 21 44 -35 145 -188 47 -70 96 -137 110 -147 l25 -20 -56 -51 c-111
-101 -323 -211 -515 -266 -166 -48 -306 -67 -494 -68 -271 -1 -532 46 -691
126 -49 24 -120 52 -158 61 -68 17 -126 14 -126 -6 0 -33 163 -137 303 -192
37 -15 118 -40 180 -56 198 -51 288 -63 477 -64 197 0 267 10 511 74 130 34
181 54 326 125 94 47 197 105 230 129 141 107 376 344 503 507 78 101 196 328
238 459 17 52 38 145 48 205 29 185 26 180 94 216 32 17 90 57 127 88 90 75
215 172 218 169 6 -9 -9 -88 -17 -88 -5 0 -6 10 -3 23 5 18 3 17 -13 -6 -14
-21 -21 -54 -26 -120 -19 -249 -86 -545 -128 -568 -10 -5 -18 -19 -18 -29 0
-11 -7 -20 -15 -20 -9 0 -18 -7 -21 -15 -4 -8 -12 -15 -20 -15 -8 0 -14 -7
-14 -15 0 -8 -7 -15 -15 -15 -19 0 -59 -42 -85 -90 -10 -19 -35 -48 -55 -63
-19 -16 -34 -34 -33 -40 2 -7 -7 -22 -20 -35 -14 -14 -22 -34 -22 -57 0 -24
-5 -35 -15 -35 -8 0 -15 -4 -15 -9 0 -4 -12 -26 -27 -47 -14 -21 -27 -46 -28
-54 -6 -40 -60 -129 -110 -182 -15 -16 -17 -22 -7 -25 16 -6 -54 -83 -75 -83
-7 0 -13 -7 -13 -16 0 -8 -13 -32 -30 -52 -20 -25 -28 -44 -24 -59 4 -15 0
-25 -15 -32 -26 -15 -29 -56 -3 -47 10 4 5 -5 -12 -20 -16 -14 -35 -23 -43
-20 -8 3 -11 2 -8 -4 3 -5 -23 -28 -57 -51 -35 -23 -81 -56 -103 -73 -22 -16
-32 -21 -23 -10 12 13 14 24 8 34 -8 13 -10 13 -10 1 0 -8 -3 -11 -6 -8 -4 3
-15 2 -25 -4 -13 -7 -17 -17 -14 -32 5 -20 -6 -28 -112 -79 -123 -60 -139 -66
-127 -46 4 7 3 8 -5 4 -6 -4 -9 -11 -6 -16 8 -12 -56 -35 -99 -34 -21 1 -33
-2 -26 -6 7 -4 -4 -13 -30 -24 -23 -9 -45 -14 -50 -11 -4 3 -10 0 -12 -6 -4
-13 -250 -75 -378 -94 -174 -27 -532 -13 -728 29 -37 8 -92 20 -122 26 -165
35 -453 141 -575 213 -99 57 -103 62 -96 98 3 16 9 30 14 29 4 0 24 9 44 20
21 11 42 20 48 20 6 0 37 25 70 56 33 31 53 53 45 50 -130 -45 -221 -87 -299
-136 -36 -22 -75 -40 -87 -40 -12 0 -36 -11 -52 -25 -16 -13 -33 -21 -37 -17
-5 4 -5 2 -1 -5 4 -7 -2 -18 -14 -25 -24 -15 -26 -50 -5 -68 9 -7 14 -19 11
-27 -3 -7 0 -13 7 -13 7 0 28 -15 48 -33 62 -56 92 -78 144 -104 65 -33 121
-70 169 -110 22 -18 45 -33 51 -33 6 0 18 -8 27 -17 23 -24 52 -49 53 -44 0 3
18 -7 40 -21 23 -14 62 -35 87 -47 26 -11 50 -26 53 -31 4 -6 24 -18 46 -26
21 -9 37 -19 35 -23 -3 -4 7 -8 21 -9 14 -1 33 -8 41 -15 12 -9 16 -9 19 0 3
8 20 4 55 -12 28 -13 54 -27 57 -32 3 -4 17 -9 31 -11 14 -2 42 -12 63 -23 21
-10 44 -19 51 -19 8 0 17 -6 20 -12 4 -9 8 -10 11 -2 4 8 18 6 45 -7 22 -11
43 -19 47 -18 4 1 10 0 13 -1 3 -1 27 -4 55 -7 27 -2 57 -9 67 -14 13 -7 18
-6 18 3 1 7 7 -1 14 -18 8 -18 19 -34 24 -38 5 -3 54 -8 108 -10 55 -3 111 -9
126 -15 19 -7 28 -7 32 2 3 9 5 9 5 0 1 -9 25 -13 87 -13 47 0 95 -5 106 -11
12 -7 18 -7 14 -1 -4 6 2 8 14 5 11 -3 17 -10 13 -17 -5 -8 -3 -8 8 0 10 9 40
9 109 3 124 -12 112 -11 210 -6 62 3 84 8 82 17 -2 9 6 7 24 -5 14 -9 24 -13
20 -7 -9 15 21 35 43 29 11 -3 30 2 42 11 20 14 22 14 17 0 -5 -13 -2 -13 27
-4 18 7 41 18 51 26 16 14 17 13 11 -4 -6 -14 -4 -16 5 -9 20 15 57 22 64 12
8 -13 45 0 65 22 20 23 33 25 25 4 -4 -12 -2 -13 14 -2 11 6 20 15 20 19 0 4
7 5 15 2 8 -4 15 -2 15 4 0 16 53 30 77 21 13 -5 22 -5 22 -1 -4 26 6 31 69
35 6 0 12 6 12 14 0 7 9 13 20 13 11 0 20 4 20 10 0 5 6 7 14 4 8 -3 17 -1 20
5 4 6 13 8 21 5 8 -3 20 4 27 15 7 12 19 21 26 21 7 0 15 6 18 14 3 8 12 17
20 20 10 4 13 2 8 -7 -5 -9 -4 -9 7 1 7 6 20 12 29 12 13 0 13 -1 0 -10 -13
-8 -12 -10 3 -10 9 0 17 7 17 16 0 8 5 12 10 9 6 -3 10 1 10 10 0 9 5 13 10
10 16 -10 49 5 44 19 -4 10 3 13 27 10 28 -4 30 -2 18 13 -10 12 -10 15 -1 9
7 -4 15 -1 18 8 3 9 11 13 17 9 6 -4 8 0 4 10 -4 11 -2 14 9 10 7 -3 14 0 14
6 0 12 36 15 43 4 2 -5 2 -2 1 5 -5 17 27 53 39 45 7 -4 8 1 3 13 -5 14 -4 16
5 7 9 -9 19 -4 42 20 17 18 35 31 40 29 5 -2 7 5 3 14 -5 13 -4 14 7 6 11 -9
18 -6 34 12 11 13 23 29 26 37 5 12 6 12 6 0 1 -20 41 17 41 38 0 16 34 53 42
46 2 -2 4 5 5 16 1 12 -2 17 -10 13 -7 -4 -8 -3 -4 2 5 5 14 9 20 9 7 0 12 7
12 15 0 8 16 31 35 51 19 19 34 43 32 52 -2 10 4 20 12 23 9 3 16 12 16 19 0
6 9 20 20 30 11 10 20 26 20 36 0 19 28 52 38 45 4 -2 9 21 10 52 2 31 6 59
10 62 15 11 43 78 40 96 -2 12 2 18 10 16 8 -1 11 2 7 8 -3 5 0 20 7 32 16 29
17 40 5 56 -7 9 -6 11 7 6 12 -5 16 0 16 21 0 15 9 40 20 55 13 19 17 31 10
35 -8 5 -7 11 1 21 6 7 13 31 16 51 3 21 11 48 19 60 10 16 11 23 1 26 -9 4
-9 6 1 6 7 1 12 16 12 41 0 23 5 40 11 40 6 0 8 7 5 15 -3 8 -9 23 -12 33 -5
14 -4 15 5 2 13 -18 14 -1 1 20 -5 9 -5 17 0 20 6 3 11 19 12 36 1 16 7 32 13
36 6 5 6 8 -2 8 -8 0 -9 9 -4 28 4 15 7 59 6 97 -1 39 3 78 8 89 6 13 6 16 -2
12 -15 -10 -14 17 1 32 9 9 9 12 0 12 -7 0 -12 7 -12 15 0 8 5 15 11 15 6 0 7
5 2 13 -4 6 -9 32 -11 57 -2 25 -4 53 -5 62 -1 9 -5 15 -9 12 -4 -2 -7 22 -6
53 0 32 -2 65 -5 73 -3 8 -8 32 -12 53 -3 20 -10 37 -15 37 -6 0 -9 3 -8 8 2
11 -23 96 -31 102 -4 3 -20 28 -36 55 -15 28 -38 59 -51 70 -34 31 -57 83 -70
158 -15 86 -37 122 -64 107 -11 -6 -20 -8 -20 -4 0 3 -11 -1 -25 -10 -13 -9
-31 -16 -39 -16 -7 0 -16 -7 -20 -15 -3 -8 -12 -15 -20 -15 -8 0 -19 -6 -23
-14 -4 -7 -53 -48 -108 -91 -55 -43 -115 -90 -132 -106 -33 -28 -141 -102
-155 -105 -5 -1 -12 -2 -17 -3 -13 -1 -19 -22 -40 -152 -35 -208 -129 -487
-181 -534 -19 -17 -20 -17 -20 -1 0 10 -8 30 -18 44 -10 15 -24 47 -31 72 -14
49 -75 169 -95 185 -6 6 -28 35 -47 65 -121 185 -171 266 -188 298 -11 20 -51
80 -90 132 -39 52 -91 132 -116 176 -42 75 -107 144 -134 144 -6 0 -11 3 -11
8 0 4 -17 15 -38 25 -25 12 -50 38 -76 78 -21 32 -42 62 -47 65 -10 6 5 -19
110 -188 36 -56 65 -109 66 -118 2 -24 47 -99 58 -97 6 1 15 -8 22 -19 6 -12
22 -39 37 -60 32 -49 156 -253 193 -319 69 -122 261 -398 331 -475 l36 -39
-40 -48 c-23 -26 -52 -61 -66 -78 -22 -26 -24 -27 -19 -7 5 20 2 22 -31 22
-26 0 -35 4 -30 12 4 7 3 8 -4 4 -6 -4 -8 -14 -5 -23 4 -10 2 -14 -4 -10 -14
9 -171 -154 -175 -182 -4 -31 -24 -1 -201 294 -33 55 -95 154 -137 220 -42 66
-94 148 -116 183 -21 35 -68 107 -103 160 -36 53 -113 178 -172 277 -165 275
-346 547 -396 596 -25 24 -55 54 -68 67 l-23 22 -7 -36 c-6 -34 -46 -84 -67
-84 -5 0 0 17 11 38 20 39 33 92 22 92 -4 0 -30 -30 -57 -67z m-164 -334 c-7
-11 -14 -18 -17 -15 -3 3 0 12 7 21 18 21 23 19 10 -6z m-146 -231 c-5 -7 -33
-52 -63 -99 -63 -97 -109 -171 -191 -305 -58 -95 -151 -234 -157 -234 -7 0 19
55 37 78 11 13 20 29 20 34 0 5 18 36 40 68 22 32 40 61 40 64 0 3 25 43 56
88 31 46 71 113 90 150 18 36 41 72 51 80 10 7 31 30 46 51 26 35 47 52 31 25z
m735 -85 c18 -29 30 -57 27 -61 -3 -5 9 -35 26 -68 38 -72 198 -332 243 -394
18 -25 38 -56 45 -70 13 -24 12 -25 -7 -7 -18 16 -23 16 -56 2 -42 -18 -263
-22 -252 -5 3 6 16 10 28 11 21 0 21 1 2 9 -16 7 -12 9 20 11 83 5 -313 17
-623 19 -294 1 -325 0 -343 -16 -17 -15 -17 -18 -2 -29 13 -10 8 -12 -30 -12
-38 -1 -45 1 -40 15 9 24 32 59 78 121 22 30 60 87 85 127 25 40 69 112 99
159 l53 86 142 -6 c77 -3 218 -2 311 3 94 5 137 10 98 10 -69 2 -100 17 -50
24 17 2 22 10 23 33 0 22 5 30 17 29 9 -1 15 2 12 6 -3 5 3 24 12 43 22 43 37
36 82 -40z m-1159 -583 c-6 -11 -13 -20 -16 -20 -2 0 0 9 6 20 6 11 13 20 16
20 2 0 0 -9 -6 -20z m985 -15 c6 -2 -57 -3 -140 -2 -129 1 -137 2 -60 6 85 6
178 4 200 -4z m143 -12 c-10 -2 -28 -2 -40 0 -13 2 -5 4 17 4 22 1 32 -1 23
-4z m-1335 -320 c-31 -57 -82 -133 -89 -133 -6 0 13 36 37 70 9 14 29 44 43
68 35 57 42 53 9 -5z m2497 -37 c0 -2 -7 -9 -15 -16 -13 -11 -14 -10 -9 4 5
14 24 23 24 12z m-2636 -178 c-21 -37 -97 -139 -100 -135 -7 6 87 147 98 147
5 0 6 -6 2 -12z m221 -157 c-21 -20 -145 -82 -145 -73 0 6 32 27 71 46 73 37
90 43 74 27z m2540 -281 c-10 -11 -23 -20 -28 -20 -13 0 24 39 37 39 5 1 1 -8
-9 -19z m-3025 -180 c-8 -6 -22 -10 -30 -9 -9 0 -5 6 10 14 27 14 44 10 20 -5z
m421 -156 c6 -8 17 -14 23 -14 13 0 65 -39 53 -40 -9 0 -117 58 -130 70 -5 4
3 5 17 3 14 -3 31 -11 37 -19z"/>
<path d="M5526 4935 c4 -8 11 -15 16 -15 6 0 5 6 -2 15 -7 8 -14 15 -16 15 -2
0 -1 -7 2 -15z"/>
<path d="M5540 4906 c0 -10 40 -86 45 -86 2 0 -4 18 -14 40 -18 40 -31 60 -31
46z"/>
<path d="M5601 4793 c7 -12 15 -20 18 -17 3 2 -3 12 -13 22 -17 16 -18 16 -5
-5z"/>
<path d="M2420 5155 c-9 -11 -9 -21 -1 -42 9 -22 10 -23 7 -5 -6 33 22 41 46
13 14 -19 18 -20 18 -6 0 47 -43 72 -70 40z"/>
<path d="M6180 5096 c0 -10 83 -146 92 -152 6 -4 9 -3 6 2 -61 109 -98 165
-98 150z"/>
<path d="M2452 5082 c-13 -2 -21 -9 -19 -15 5 -15 19 -18 36 -8 20 13 10 27
-17 23z"/>
<path d="M3880 4840 c-11 -22 -26 -40 -32 -40 -6 0 -9 -3 -5 -6 3 -4 -1 -21
-10 -38 -8 -17 -11 -26 -5 -21 14 14 85 145 78 145 -3 0 -15 -18 -26 -40z"/>
<path d="M6490 4593 c13 -24 37 -55 53 -70 22 -21 17 -11 -18 37 -58 81 -64
86 -35 33z"/>
<path d="M9015 4225 c-30 -29 -31 -45 -4 -79 24 -31 52 -33 79 -6 28 28 25 64
-6 89 -34 27 -40 26 -69 -4z"/>
<path d="M6786 4124 c-5 -14 -4 -15 9 -4 17 14 19 20 6 20 -5 0 -12 -7 -15
-16z"/>
<path d="M2989 3950 c-19 -10 -42 -26 -49 -36 -9 -10 -1 -8 22 7 19 13 44 29
54 36 29 18 13 14 -27 -7z"/>
<path d="M2609 3659 l-24 -20 28 17 c15 9 27 18 27 20 0 8 -8 4 -31 -17z"/>
<path d="M2549 3621 c-23 -20 -23 -20 -2 -14 12 3 24 11 27 19 7 19 3 18 -25
-5z"/>
<path d="M2495 3580 c-3 -5 -2 -10 4 -10 5 0 13 5 16 10 3 6 2 10 -4 10 -5 0
-13 -4 -16 -10z"/>
<path d="M2729 3533 c-13 -17 -13 -17 6 -3 11 8 22 16 24 17 2 2 0 3 -6 3 -6
0 -17 -8 -24 -17z"/>
<path d="M2725 3430 c3 -5 -3 -10 -15 -10 -12 0 -24 -9 -29 -22 -5 -14 -10
-18 -15 -10 -10 17 -26 5 -26 -19 0 -26 3 -25 60 18 52 39 61 53 34 53 -8 0
-12 -4 -9 -10z"/>
<path d="M5920 3430 c-8 -5 -10 -10 -5 -10 6 0 17 5 25 10 8 5 11 10 5 10 -5
0 -17 -5 -25 -10z"/>
<path d="M2529 3372 c-33 -30 -40 -40 -28 -47 8 -4 11 -5 7 0 -11 12 11 35 27
29 7 -3 19 7 28 25 9 17 14 31 13 31 -2 0 -23 -17 -47 -38z"/>
<path d="M2594 3325 c-19 -18 -31 -22 -38 -15 -17 17 -35 11 -33 -11 1 -15 6
-19 21 -15 26 7 7 -10 -21 -19 -17 -5 -23 -2 -23 9 0 9 -7 16 -15 16 -20 0
-19 -17 2 -29 16 -9 16 -12 -7 -37 -14 -15 -18 -23 -10 -19 29 17 160 128 160
136 0 14 -7 11 -36 -16z"/>
<path d="M2855 3249 c-136 -92 -157 -108 -150 -120 3 -4 0 -11 -6 -15 -8 -4
-9 -3 -5 4 4 7 2 12 -3 12 -6 0 -11 -10 -12 -22 0 -13 -3 -17 -6 -10 -3 9 -13
6 -36 -10 -64 -43 -137 -110 -132 -119 4 -5 0 -6 -8 -3 -8 3 -23 -5 -33 -18
-11 -13 -40 -39 -66 -56 -27 -18 -48 -35 -48 -37 0 -11 32 5 71 35 24 19 51
40 60 45 34 21 295 221 340 261 45 39 138 108 149 109 4 0 11 25 6 25 -1 0
-55 -36 -121 -81z"/>
<path d="M2995 3320 c-3 -6 1 -7 9 -4 18 7 21 14 7 14 -6 0 -13 -4 -16 -10z"/>
<path d="M6210 3310 c-9 -6 -10 -10 -3 -10 6 0 15 5 18 10 8 12 4 12 -15 0z"/>
<path d="M2139 3293 c-13 -16 -12 -17 4 -4 9 7 17 15 17 17 0 8 -8 3 -21 -13z"/>
<path d="M2429 3283 l-24 -26 33 23 c33 25 38 30 24 30 -5 0 -19 -12 -33 -27z"/>
<path d="M6155 3289 c-4 -6 -13 -8 -19 -6 -16 6 -43 -9 -34 -18 9 -9 78 14 78
26 0 12 -17 11 -25 -2z"/>
<path d="M5900 3180 c0 -5 5 -10 10 -10 6 0 10 5 10 10 0 6 -4 10 -10 10 -5 0
-10 -4 -10 -10z"/>
<path d="M2215 3120 c-3 -5 -1 -10 4 -10 6 0 11 5 11 10 0 6 -2 10 -4 10 -3 0
-8 -4 -11 -10z"/>
<path d="M2230 3080 c0 -5 5 -10 11 -10 5 0 7 5 4 10 -3 6 -8 10 -11 10 -2 0
-4 -4 -4 -10z"/>
<path d="M2145 3060 c-3 -5 -1 -10 4 -10 6 0 11 5 11 10 0 6 -2 10 -4 10 -3 0
-8 -4 -11 -10z"/>
<path d="M2256 3054 c-5 -14 -4 -15 9 -4 17 14 19 20 6 20 -5 0 -12 -7 -15
-16z"/>
<path d="M2192 3034 c-9 -10 -9 -14 -1 -14 6 0 9 -7 5 -15 -5 -13 -2 -13 19 1
28 18 33 26 11 18 -8 -3 -16 1 -18 9 -3 13 -5 13 -16 1z"/>
<path d="M2389 2993 l-24 -28 28 24 c25 23 32 31 24 31 -2 0 -14 -12 -28 -27z"/>
<path d="M2059 2983 c-13 -16 -12 -17 4 -4 9 7 17 15 17 17 0 8 -8 3 -21 -13z"/>
<path d="M2086 2915 c-21 -19 -34 -35 -29 -35 5 0 24 16 43 35 43 45 36 45
-14 0z"/>
<path d="M1940 2870 c-9 -6 -10 -10 -3 -10 6 0 15 5 18 10 8 12 4 12 -15 0z"/>
<path d="M2180 2821 c-19 -16 -37 -28 -41 -26 -3 3 -21 -12 -40 -31 -20 -20
-26 -32 -16 -28 10 3 22 15 28 25 5 11 13 18 17 15 4 -2 27 13 52 35 52 44 52
53 0 10z"/>
<path d="M2204 2742 c-17 -15 -62 -51 -99 -79 -38 -29 -62 -53 -54 -53 8 0 25
9 39 20 14 11 53 43 88 70 34 27 63 52 63 56 1 14 -8 11 -37 -14z"/>
<path d="M2016 2584 c-5 -14 -4 -15 9 -4 17 14 19 20 6 20 -5 0 -12 -7 -15
-16z"/>
<path d="M2215 2564 l-40 -36 43 32 c36 27 49 40 40 40 -2 0 -21 -16 -43 -36z"/>
<path d="M2139 2503 c-13 -16 -12 -17 4 -4 9 7 17 15 17 17 0 8 -8 3 -21 -13z"/>
<path d="M2210 2470 c-9 -6 -10 -10 -3 -10 6 0 15 5 18 10 8 12 4 12 -15 0z"/>
</g>
</svg>
